Coordinates
version=1
nRows=17
nColumns=24
inDegrees=yes

Units are S.I. units (second, meters, Newtons, ...)
Angles are in degrees.

endheader
time	pelvis_tilt	pelvis_list	pelvis_rotation	pelvis_tx	pelvis_ty	pelvis_tz	hip_flexion_r	hip_adduction_r	hip_rotation_r	knee_angle_r	ankle_angle_r	subtalar_angle_r	mtp_angle_r	hip_flexion_l	hip_adduction_l	hip_rotation_l	knee_angle_l	ankle_angle_l	subtalar_angle_l	mtp_angle_l	lumbar_extension	lumbar_bending	lumbar_rotation
      0.86700000	     -9.92010445	     -0.85493892	     -4.48805859	     -0.12522088	      0.88678757	      0.33299104	     -5.20412125	      4.80546744	      0.71325519	     -9.73077450	     15.46403724	      5.22561766	      8.77409513	     36.64200244	     -2.99798469	     -9.96713130	    -13.96463961	      1.69261169	     -2.72166950	      1.74530774	      2.13921660	      1.60334917	     11.35260820
      0.87116667	    -10.03034546	     -0.82012107	     -4.61262672	     -0.11934561	      0.88531679	      0.33289722	     -5.25771558	      4.70302214	      0.77047154	    -10.23336506	     15.69577326	      5.44715278	      8.93973338	     36.75235853	     -2.94845280	     -9.65707197	    -13.73459104	      1.63601678	     -2.78030119	      1.75506942	      2.31123378	      1.55511480	     11.48764934
      0.87533333	    -10.14148952	     -0.77430923	     -4.72764006	     -0.11347098	      0.88386857	      0.33282624	     -5.28797536	      4.59512723	      0.86098193	    -10.78249799	     15.91635401	      5.60245576	      9.09029608	     36.88064815	     -2.89308600	     -9.36246735	    -13.65061039	      1.56154034	     -2.83706577	      1.77080623	      2.46568825	      1.44379539	     11.57383918
      0.87950000	    -10.26016657	     -0.71895588	     -4.83396730	     -0.10757017	      0.88244845	      0.33272073	     -5.27819691	      4.47209339	      0.90569070	    -11.39315472	     16.11420487	      5.81406458	      9.27076473	     37.00820854	     -2.81980238	     -9.04438919	    -13.65463861	      1.46142361	     -2.96304271	      1.79623477	      2.64767398	      1.34186444	     11.66223246
      0.88366667	    -10.36267341	     -0.64892087	     -4.92841015	     -0.10163458	      0.88110333	      0.33256399	     -5.24772434	      4.32272411	      0.88021295	    -12.08032025	     16.26596732	      6.10237778	      9.56685990	     37.10312796	     -2.71843569	     -8.70921815	    -13.72523052	      1.32099408	     -3.16832902	      1.84821569	      2.81658281	      1.24306537	     11.74535571
      0.88783333	    -10.47670265	     -0.57220160	     -5.00580448	     -0.09568657	      0.87977656	      0.33239701	     -5.18120044	      4.17052701	      0.87007108	    -12.81564719	     16.40006861	      6.34700685	      9.90644410	     37.22809156	     -2.60857701	     -8.40333920	    -13.92853207	      1.16239760	     -3.38336313	      1.91905169	      2.99604686	      1.10859991	     11.79231711
      0.89200000	    -10.59620985	     -0.48364819	     -5.07827082	     -0.08971593	      0.87848572	      0.33225105	     -5.09125110	      4.01171737	      0.90690207	    -13.58461601	     16.53198311	      6.51893756	     10.15628728	     37.36633472	     -2.49270452	     -8.12962724	    -14.24226105	      1.00413915	     -3.57729161	      1.97578817	      3.19003614	      0.93244845	     11.80107240
      0.89616667	    -10.67555096	     -0.38240952	     -5.11423755	     -0.08369475	      0.87732399	      0.33198884	     -5.01280096	      3.81985679	      0.80540225	    -14.40144437	     16.46386219	      6.72393258	     13.98519723	     37.43777428	     -2.32226941	     -7.78745313	    -14.57531709	      0.73920923	     -3.97411876	      2.96412595	      3.33012013	      0.76355342	     11.79697121
      0.90033333	    -10.79143053	     -0.29162897	     -5.16777616	     -0.07770311	      0.87613885	      0.33178141	     -4.84817202	      3.64769946	      0.77867767	    -15.32316435	     16.50831659	      6.97663909	     14.04308757	     37.59208616	     -2.19959561	     -7.58869497	    -15.08919822	      0.60838583	     -4.15736092	      2.98776953	      3.52077008	      0.60064281	     11.78272189
      0.90450000	    -10.86709644	     -0.18418436	     -5.18267855	     -0.07166797	      0.87508639	      0.33144613	     -4.69133229	      3.43612065	      0.62659612	    -16.30919324	     16.49399491	      7.36933007	     14.21316590	     37.67683208	     -2.01542522	     -7.31671298	    -15.59845327	      0.36835238	     -4.52496306	      3.04350952	      3.65995559	      0.43322704	     11.75789394
      0.90866667	    -10.95826985	     -0.07420059	     -5.18720766	     -0.06562385	      0.87406785	      0.33111566	     -4.48663142	      3.22718309	      0.50687258	    -17.35250543	     16.42041269	      7.67166020	     14.45093436	     37.79087792	     -1.83313723	     -7.09127180	    -16.19532527	      0.16378082	     -4.86769251	      3.11440101	      3.82317718	      0.24533731	     11.69083517
      0.91283333	    -11.02238082	      0.05212148	     -5.17271349	     -0.05954950	      0.87315795	      0.33072415	     -4.27581683	      2.98592383	      0.33605292	    -18.45746856	     16.30008865	      8.04591308	     14.87734696	     37.87041455	     -1.61808765	     -6.87721317	    -16.82821065	     -0.02679344	     -5.27617210	      3.23114390	      3.96160320	      0.02716465	     11.60520798
      0.91700000	    -11.09547786	      0.17037759	     -5.16302989	     -0.05347896	      0.87232994	      0.33035094	     -4.02482883	      2.75917282	      0.23449537	    -19.59800582	     15.96406698	      8.21213116	     18.37853580	     37.95307122	     -1.41865232	     -6.69404505	    -17.49104348	     -0.21989763	     -5.70889829	      4.14439502	      4.11191388	     -0.17842181	     11.51317552
      0.92116667	    -11.17172593	      0.28342975	     -5.13031947	     -0.04740918	      0.87153288	      0.32995063	     -3.72354233	      2.53201335	      0.08908326	    -20.83656001	     15.68563053	      8.51348659	     18.44124404	     38.07169731	     -1.23277512	     -6.60548434	    -18.26523761	     -0.23855078	     -5.87384987	      4.16457920	      4.26874270	     -0.39569685	     11.38542613
      0.92533333	    -11.22563777	      0.40458964	     -5.08183196	     -0.04134650	      0.87085631	      0.32948652	     -3.39957233	      2.27975088	     -0.10078679	    -22.14971954	     15.34749901	      8.87326026	     18.56475698	     38.14999539	     -1.02038292	     -6.49219843	    -19.02562034	     -0.30290733	     -6.15876766	      4.18989989	      4.39107496	     -0.61002868	     11.24016926
      0.92950000	    -11.25383126	      0.53236255	     -5.00934234	     -0.03530127	      0.87029690	      0.32893664	     -3.05034952	      2.00227294	     -0.34854108	    -23.55319396	     14.99548420	      9.27751795	     18.81792086	     38.18795527	     -0.78012877	     -6.36412062	    -19.77107352	     -0.38823540	     -6.47972727	      4.23164495	      4.47421308	     -0.80540811	     11.06475431
      0.93366667	    -11.21963573	      0.69743921	     -4.93294435	     -0.02921209	      0.86993850	      0.32835935	     -2.73799955	      1.66184365	     -0.60684491	    -24.98820967	     14.51108822	      9.75765737	     19.75440650	     38.12231046	     -0.48814493	     -6.22983333	    -20.46819324	     -0.39703703	     -6.92142190	      4.36573250	      4.47402039	     -1.08529062	     10.84722694
